<?xml version="1.0" encoding="UTF-8"?>
<svg version="1.1" xmlns="http://www.w3.org/2000/svg" width="797" height="573">
<path d="M0 0 C263.01 0 526.02 0 797 0 C797 189.09 797 378.18 797 573 C533.99 573 270.98 573 0 573 C0 383.91 0 194.82 0 0 Z " fill="#010101" transform="translate(0,0)"/>
<path d="M0 0 C3.04235213 1.89718229 5.98010406 3.94006692 8.91894531 5.99267578 C12.31513395 8.31812397 15.81582231 10.474461 19.3125 12.64453125 C19.96226807 13.0523584 20.61203613 13.46018555 21.28149414 13.88037109 C24.38944871 15.82468769 27.51391762 17.7045067 30.71484375 19.4921875 C33.65905666 21.20630898 35.49539111 22.95242236 37.875 25.33203125 C40.50722962 26.58639312 40.50722962 26.58639312 42.875 27.33203125 C42.875 27.99203125 42.875 28.65203125 42.875 29.33203125 C43.679375 29.45578125 44.48375 29.57953125 45.3125 29.70703125 C46.5809375 30.01640625 46.5809375 30.01640625 47.875 30.33203125 C48.205 30.99203125 48.535 31.65203125 48.875 32.33203125 C50.89963255 32.98416417 50.89963255 32.98416417 52.875 33.33203125 C52.875 34.32203125 52.875 35.31203125 52.875 36.33203125 C53.40875244 36.41598145 53.94250488 36.49993164 54.49243164 36.58642578 C57.7495733 37.60572188 60.1707724 39.34974559 62.99609375 41.26171875 C63.5778688 41.65271759 64.15964386 42.04371643 64.75904846 42.44656372 C66.61391576 43.69464324 68.4633478 44.95050355 70.3125 46.20703125 C72.15910985 47.45482534 74.00681354 48.70097395 75.85523987 49.94607544 C77.53622019 51.07949196 79.21435485 52.21712552 80.89233398 53.35498047 C83.51475344 55.09324295 86.1687919 56.72910332 88.875 58.33203125 C91.5519557 60.09638842 94.21152237 61.88538486 96.87109375 63.67578125 C101.13965894 66.53670908 105.43098017 69.3602754 109.75 72.14453125 C110.65492188 72.72847656 111.55984375 73.31242187 112.4921875 73.9140625 C114.8894997 75.4554152 114.8894997 75.4554152 117.875 76.33203125 C119.23324882 77.63997456 120.55956137 78.98104022 121.875 80.33203125 C122.54660156 80.79351562 123.21820313 81.255 123.91015625 81.73046875 C127.36279835 84.22708826 129.53326653 85.97979558 130.6015625 90.20703125 C130.84462465 95.32412909 130.64156944 98.72642283 127.45703125 102.84765625 C123.54512648 107.08594163 118.77679506 109.49500364 113.6875 112.08203125 C111.89992598 113.00967867 110.1146631 113.94179673 108.33203125 114.87890625 C107.54803955 115.27948242 106.76404785 115.68005859 105.95629883 116.09277344 C103.90327111 117.31519792 102.54122981 118.64247941 100.875 120.33203125 C99.2558476 121.05899763 97.63253563 121.77894009 95.984375 122.4375 C92.56798915 123.88630067 89.30380137 125.63469026 86.01171875 127.34375 C83.875 128.33203125 83.875 128.33203125 81.875 128.33203125 C81.545 129.32203125 81.215 130.31203125 80.875 131.33203125 C78.87890625 132.5 78.87890625 132.5 76.4375 133.51953125 C75.63441406 133.86371094 74.83132812 134.20789063 74.00390625 134.5625 C71.875 135.33203125 71.875 135.33203125 69.875 135.33203125 C77.24945313 143.42014113 87.16193777 148.5300679 96.875 153.33203125 C96.875 153.99203125 96.875 154.65203125 96.875 155.33203125 C97.71756348 155.73518555 97.71756348 155.73518555 98.57714844 156.14648438 C102.94245805 158.39870956 107.00171126 161.1697958 111.125 163.83203125 C112.06085938 164.42628906 112.99671875 165.02054688 113.9609375 165.6328125 C114.84523437 166.20386719 115.72953125 166.77492188 116.640625 167.36328125 C117.85927246 168.14541992 117.85927246 168.14541992 119.10253906 168.94335938 C119.97990723 169.63075195 119.97990723 169.63075195 120.875 170.33203125 C120.875 170.99203125 120.875 171.65203125 120.875 172.33203125 C121.4525 172.41453125 122.03 172.49703125 122.625 172.58203125 C125.55294601 173.55801325 126.92744537 174.96714348 128.875 177.33203125 C128.875 178.32203125 128.875 179.31203125 128.875 180.33203125 C129.535 180.33203125 130.195 180.33203125 130.875 180.33203125 C131.17493 184.68101625 131.29519679 187.3961384 129.5 191.39453125 C122.82944823 198.85919632 113.64941539 203.25833882 104.94482422 207.95605469 C104.18959473 208.36500977 103.43436523 208.77396484 102.65625 209.1953125 C101.97626953 209.55923096 101.29628906 209.92314941 100.59570312 210.2980957 C98.70751071 211.33824833 98.70751071 211.33824833 96.875 213.33203125 C95.236468 214.04507663 93.59580182 214.75368624 91.94384766 215.43505859 C88.04450617 217.12566287 84.31613286 219.1559483 80.5625 221.14453125 C79.72452881 221.58595459 78.88655762 222.02737793 78.02319336 222.48217773 C72.82859847 225.23753647 67.73891123 228.09979774 62.78515625 231.2734375 C60.81994339 232.3625432 59.07040531 232.89491476 56.875 233.33203125 C56.875 233.99203125 56.875 234.65203125 56.875 235.33203125 C54.25809976 237.15593142 51.64973388 238.42552224 48.703125 239.6484375 C44.52937746 241.41996511 40.62468643 243.59171672 36.6875 245.83203125 C35.98947266 246.22261719 35.29144531 246.61320313 34.57226562 247.015625 C31.15810551 248.94522643 27.99558424 250.94864925 24.875 253.33203125 C23.26041504 254.02399623 21.64414912 254.71260356 20.015625 255.37109375 C16.29155911 257.04284595 12.77924433 259.11321136 9.23046875 261.125 C6.875 262.33203125 6.875 262.33203125 4.875 262.33203125 C4.875 263.32203125 4.875 264.31203125 4.875 265.33203125 C-1.19066561 268.02788263 -6.4873557 269.55300404 -13.125 268.33203125 C-16.72613892 266.6919979 -18.97488537 264.6551263 -21.125 261.33203125 C-22.24368566 255.77202804 -22.05869061 250.3272692 -21.90625 244.6796875 C-21.89131303 243.05304251 -21.87993288 241.42636133 -21.87194824 239.79966736 C-21.84152696 235.53586961 -21.76305665 231.27428206 -21.67431641 227.01135254 C-21.59220481 222.65435686 -21.55588318 218.29700094 -21.515625 213.93945312 C-21.43004709 205.40263599 -21.29366823 196.8676092 -21.125 188.33203125 C-23.67491545 189.59712459 -26.22373171 190.86435416 -28.77197266 192.1328125 C-29.48776993 192.48766724 -30.2035672 192.84252197 -30.9410553 193.20812988 C-36.59879404 196.02758622 -42.07837529 199.08088805 -47.5 202.33203125 C-49.10965211 203.29426808 -50.72151869 204.25281351 -52.3359375 205.20703125 C-53.01962402 205.61695313 -53.70331055 206.026875 -54.40771484 206.44921875 C-56.125 207.33203125 -56.125 207.33203125 -58.125 207.33203125 C-58.455 208.32203125 -58.785 209.31203125 -59.125 210.33203125 C-63.51382766 211.7949738 -67.7683714 212.2169132 -72.1328125 210.578125 C-75.70601796 208.67191706 -77.73912064 207.11214314 -79.125 203.33203125 C-79.37109566 200.55970383 -79.37109566 200.55970383 -79.36550903 197.30828857 C-79.36825836 196.07432343 -79.37100769 194.84035828 -79.37384033 193.56900024 C-79.36676255 192.20452783 -79.35949293 190.84005641 -79.35205078 189.47558594 C-79.35148654 188.03659066 -79.35180347 186.5975948 -79.35293579 185.15859985 C-79.35350981 181.25395213 -79.34174748 177.34942719 -79.32778788 173.44480801 C-79.31528881 169.36354125 -79.31411067 165.28227171 -79.31173706 161.20098877 C-79.30551987 153.47333076 -79.28910582 145.74572931 -79.26903808 138.01809621 C-79.24668652 129.2201135 -79.23568752 120.42212809 -79.22564721 111.62412405 C-79.2047398 93.52672771 -79.16955917 75.42938403 -79.125 57.33203125 C-78.465 57.33203125 -77.805 57.33203125 -77.125 57.33203125 C-76.7228125 56.40390625 -76.7228125 56.40390625 -76.3125 55.45703125 C-75.125 53.33203125 -75.125 53.33203125 -72.125 51.33203125 C-67.65905217 50.20751201 -63.37312686 50.19830701 -59.19335938 52.30615234 C-55.77069948 54.38041652 -52.53671773 56.679276 -49.3125 59.046875 C-46.31678035 61.43240742 -46.31678035 61.43240742 -43.125 62.33203125 C-42.568125 62.90953125 -42.01125 63.48703125 -41.4375 64.08203125 C-37.31277345 68.09527871 -32.27731205 70.8248794 -27.125 73.33203125 C-27.125 73.99203125 -27.125 74.65203125 -27.125 75.33203125 C-24.155 76.32203125 -24.155 76.32203125 -21.125 77.33203125 C-21.12944122 76.52516373 -21.13388245 75.7182962 -21.13845825 74.88697815 C-21.17867057 67.25210982 -21.20905297 59.61729345 -21.22862434 51.98234653 C-21.23902469 48.05792759 -21.25311468 44.13359676 -21.27587891 40.20922852 C-21.29774194 36.41612326 -21.30959677 32.62310233 -21.31475449 28.82993889 C-21.31842624 27.38879 -21.3255957 25.94764529 -21.33646011 24.50653267 C-21.44417907 9.61463767 -21.44417907 9.61463767 -19.125 2.33203125 C-13.14269164 -2.6735737 -6.98370668 -3.72755344 0 0 Z " fill="#CE5046" transform="translate(130.125,126.66796875)"/>
<path d="M0 0 C3.93646804 0.69467083 6.71312684 1.65223346 10 4 C10 4.66 10 5.32 10 6 C10.99 6 11.98 6 13 6 C13.33 6.66 13.66 7.32 14 8 C15.65071396 9.02611949 17.31970006 10.02308143 19 11 C19.598125 11.495 20.19625 11.99 20.8125 12.5 C22.87238712 13.91249403 24.47494381 14.57483654 26.8125 15.375 C31.95889622 17.20546867 36.13950341 20.01547031 39.875 24 C44.15322186 28.02656175 49.76841992 30.40798987 55 33 C55 33.66 55 34.32 55 35 C55.99 35 56.98 35 58 35 C59.3613351 36.30473073 60.69099158 37.64277765 62 39 C63.61531877 40.10834059 65.26436961 41.16852585 66.9375 42.1875 C72.5083895 45.63935492 77.82865475 49.36319114 83.15234375 53.1796875 C85.58432714 54.73428868 87.18925808 55.58008193 90 56 C90 56.99 90 57.98 90 59 C90.72703125 59.09796875 91.4540625 59.1959375 92.203125 59.296875 C95.37091708 60.09324731 97.14876334 61.29482212 99.75 63.25 C105.54095708 67.45924791 111.59589467 70.8266653 118 74 C118 74.66 118 75.32 118 76 C118.84256348 76.4031543 118.84256348 76.4031543 119.70214844 76.81445312 C124.06745805 79.06667831 128.12671126 81.83776455 132.25 84.5 C133.65378906 85.39138672 133.65378906 85.39138672 135.0859375 86.30078125 C135.97023437 86.87183594 136.85453125 87.44289063 137.765625 88.03125 C138.98427246 88.81338867 138.98427246 88.81338867 140.22753906 89.61132812 C140.81245117 90.06958984 141.39736328 90.52785156 142 91 C142 91.66 142 92.32 142 93 C142.5775 93.0825 143.155 93.165 143.75 93.25 C146.67794601 94.225982 148.05244537 95.63511223 150 98 C150 98.99 150 99.98 150 101 C150.66 101 151.32 101 152 101 C152.29993 105.348985 152.42019679 108.06410715 150.625 112.0625 C143.95444823 119.52716507 134.77441539 123.92630757 126.06982422 128.62402344 C125.31459473 129.03297852 124.55936523 129.44193359 123.78125 129.86328125 C122.7612793 130.40915894 122.7612793 130.40915894 121.72070312 130.96606445 C119.83251071 132.00621708 119.83251071 132.00621708 118 134 C116.361468 134.71304538 114.72080182 135.42165499 113.06884766 136.10302734 C109.16950617 137.79363162 105.44113286 139.82391705 101.6875 141.8125 C100.84952881 142.25392334 100.01155762 142.69534668 99.14819336 143.15014648 C93.95359847 145.90550522 88.86391123 148.76776649 83.91015625 151.94140625 C81.94494339 153.03051195 80.19540531 153.56288351 78 154 C78 154.66 78 155.32 78 156 C75.38309976 157.82390017 72.77473388 159.09349099 69.828125 160.31640625 C65.65437746 162.08793386 61.74968643 164.25968547 57.8125 166.5 C57.11447266 166.89058594 56.41644531 167.28117188 55.69726562 167.68359375 C52.28310551 169.61319518 49.12058424 171.616618 46 174 C44.38541504 174.69196498 42.76914912 175.38057231 41.140625 176.0390625 C37.41655911 177.7108147 33.90424433 179.78118011 30.35546875 181.79296875 C28 183 28 183 26 183 C26 183.99 26 184.98 26 186 C20.03644144 188.65047047 14.5532344 190.2294364 8 189 C4.84164831 186.56543724 3.20018505 184.30027757 1 181 C0.77294922 177.91929626 0.77294922 177.91929626 0.8046875 174.08178711 C0.80760803 173.38230453 0.81052856 172.68282196 0.8135376 171.96214294 C0.82114404 170.44467786 0.83337147 168.92723052 0.84967041 167.40983391 C0.87517955 165.01045559 0.88822325 162.61129809 0.89794922 160.21180725 C0.9208137 155.12027244 0.95930981 150.02891948 1 144.9375 C1.0471366 139.03502777 1.08793338 133.13265923 1.11187744 127.23004341 C1.12487681 124.86228242 1.14989005 122.49483779 1.17529297 120.12718201 C1.18255561 118.68106363 1.18925937 117.2349423 1.1953125 115.78881836 C1.20578613 114.52323593 1.21625977 113.2576535 1.22705078 111.95372009 C1.31299617 108.87910826 1.31299617 108.87910826 -1 107 C-1.24723816 104.12753296 -1.24723816 104.12753296 -1.24291992 100.39599609 C-1.24481827 99.71558762 -1.24671661 99.03517914 -1.24867249 98.33415222 C-1.25239978 96.06379949 -1.24161697 93.79376242 -1.23046875 91.5234375 C-1.22927389 89.92143796 -1.22882443 88.31943771 -1.2290802 86.71743774 C-1.22751005 83.33274021 -1.21920416 79.94814761 -1.20581055 76.56347656 C-1.18922407 72.32816489 -1.18506878 68.09297181 -1.18563652 63.85763168 C-1.18486727 42.55411042 -0.8176078 21.28814191 0 0 Z " fill="#CE5147" transform="translate(109,206)"/>
<path d="M0 0 C3.93646804 0.69467083 6.71312684 1.65223346 10 4 C10 4.66 10 5.32 10 6 C10.99 6 11.98 6 13 6 C13.33 6.66 13.66 7.32 14 8 C15.65071396 9.02611949 17.31970006 10.02308143 19 11 C19.598125 11.495 20.19625 11.99 20.8125 12.5 C22.87238712 13.91249403 24.47494381 14.57483654 26.8125 15.375 C31.95889622 17.20546867 36.13950341 20.01547031 39.875 24 C44.15322186 28.02656175 49.76841992 30.40798987 55 33 C55 33.66 55 34.32 55 35 C55.99 35 56.98 35 58 35 C59.3613351 36.30473073 60.69099158 37.64277765 62 39 C63.61531877 40.10834059 65.26436961 41.16852585 66.9375 42.1875 C72.52653124 45.65525693 77.88702034 49.37661298 83.25 53.1796875 C85.91804585 55.11709673 85.91804585 55.11709673 89 56 C89 56.66 89 57.32 89 58 C88.02160156 58.50789063 87.04320312 59.01578125 86.03515625 59.5390625 C79.4578018 62.98226389 73.04785613 66.44940389 66.93359375 70.6796875 C59.14201183 76 59.14201183 76 56 76 C56 76.66 56 77.32 56 78 C55.071875 78.37125 54.14375 78.7425 53.1875 79.125 C48.72850913 81.01641621 44.56479633 83.40671546 40.35546875 85.79296875 C38 87 38 87 36 87 C36 87.66 36 88.32 36 89 C35.401875 89.103125 34.80375 89.20625 34.1875 89.3125 C31.95431638 89.82657691 31.95431638 89.82657691 30.61328125 91.40625 C28.85101556 93.14718075 27.21462135 94.0927724 25 95.1875 C24.319375 95.53167969 23.63875 95.87585938 22.9375 96.23046875 C21 97 21 97 18 97 C18 97.66 18 98.32 18 99 C15.03 99.99 12.06 100.98 9 102 C9 102.66 9 103.32 9 104 C6.36 104.99 3.72 105.98 1 107 C0 106 0 106 -0.12304783 104.22151089 C-0.12166514 103.0503729 -0.12166514 103.0503729 -0.12025452 101.85557556 C-0.12162918 100.96230057 -0.12300385 100.06902557 -0.12442017 99.14868164 C-0.12082489 98.16109863 -0.11722961 97.17351562 -0.11352539 96.15600586 C-0.11367142 95.12198135 -0.11381744 94.08795685 -0.1139679 93.02259827 C-0.11326827 89.58665914 -0.10547358 86.15077347 -0.09765625 82.71484375 C-0.09579225 80.33972707 -0.09436826 77.96461 -0.09336853 75.5894928 C-0.08954197 69.32423856 -0.0797105 63.05900733 -0.06866455 56.79376221 C-0.0584534 50.4061311 -0.05387155 44.01849629 -0.04882812 37.63085938 C-0.03808836 25.08722974 -0.02120127 12.54361609 0 0 Z " fill="#F75F54" transform="translate(109,206)"/>
<path d="M0 0 C2.15990776 -0.00963384 4.31883441 -0.04060745 6.47851562 -0.07226562 C7.86392666 -0.07880295 9.24934449 -0.08405055 10.63476562 -0.08789062 C11.89047363 -0.09723633 13.14618164 -0.10658203 14.43994141 -0.11621094 C18.64977466 0.29779664 21.27839937 1.40434286 25.06445312 3.24023438 C25.82113281 3.56765625 26.5778125 3.89507812 27.35742188 4.23242188 C33.71629289 7.19552466 36.68739 10.78404049 39.42480469 17.32012939 C41.07420783 22.27132915 40.58184055 27.77286185 40.56542969 32.94580078 C40.56445823 35.10390148 40.60612736 37.25842756 40.65039062 39.41601562 C40.7199391 47.31852533 40.2841469 53.88067234 35.06445312 60.24023438 C32.95898438 62.32617188 32.95898438 62.32617188 30.87695312 63.61523438 C30.20277344 64.05609375 29.52859375 64.49695313 28.83398438 64.95117188 C19.5935769 69.25206675 11.1173703 69.651356 1.00195312 69.49023438 C-0.34114026 69.48374522 -1.68424041 69.47852846 -3.02734375 69.47460938 C-12.78099717 69.39478408 -12.78099717 69.39478408 -13.93554688 68.24023438 C-14.0349866 66.15948028 -14.06354283 64.07531589 -14.06494141 61.9921875 C-14.06669373 61.34015854 -14.06844604 60.68812958 -14.07025146 60.01634216 C-14.07466891 57.85136285 -14.07173239 55.68646459 -14.06835938 53.52148438 C-14.06903245 52.02315251 -14.0700025 50.52482075 -14.07125854 49.02648926 C-14.07273537 45.88239505 -14.07058145 42.7383292 -14.06591797 39.59423828 C-14.06022068 35.55536899 -14.06349977 31.51656613 -14.06949043 27.47769928 C-14.07309646 24.38258357 -14.07195727 21.28748373 -14.06936264 18.19236755 C-14.06869349 16.70275362 -14.06952139 15.21313827 -14.07184219 13.723526 C-14.07436941 11.64507202 -14.0705272 9.56672706 -14.06494141 7.48828125 C-14.06414581 6.30327026 -14.06335022 5.11825928 -14.06253052 3.89733887 C-13.76172705 -2.39690674 -4.93637451 0.01332954 0 0 Z " fill="#B89C5A" transform="translate(530.935546875,231.759765625)"/>
<path d="M0 0 C2.79496232 0.07199196 5.11737238 0.16884115 7.6237793 1.47436523 C10.8206012 5.17164808 14.65893555 12.4165357 14.65893555 17.45092773 C15.31893555 17.45092773 15.97893555 17.45092773 16.65893555 17.45092773 C16.99666992 18.16120117 17.3344043 18.87147461 17.68237305 19.60327148 C18.12838867 20.52237305 18.5744043 21.44147461 19.03393555 22.38842773 C19.47479492 23.30495117 19.9156543 24.22147461 20.36987305 25.16577148 C21.45092717 27.57996576 21.45092717 27.57996576 23.65893555 28.45092773 C23.90643555 27.58467773 24.15393555 26.71842773 24.40893555 25.82592773 C25.72853876 22.26299905 27.54378376 19.58954007 29.65893555 16.45092773 C30.42833236 14.22490159 30.42833236 14.22490159 30.65893555 12.45092773 C31.31893555 12.45092773 31.97893555 12.45092773 32.65893555 12.45092773 C32.8290918 11.83604492 32.99924805 11.22116211 33.17456055 10.58764648 C33.4169043 9.7794043 33.65924805 8.97116211 33.90893555 8.13842773 C34.1409668 7.33791992 34.37299805 6.53741211 34.61206055 5.71264648 C35.91508905 2.89752147 36.91911095 1.90907167 39.65893555 0.45092773 C42.82299805 0.08764648 42.82299805 0.08764648 46.28393555 0.13842773 C48.00483398 0.14422852 48.00483398 0.14422852 49.76049805 0.15014648 C52.65893555 0.45092773 52.65893555 0.45092773 54.65893555 2.45092773 C54.91290283 5.0562439 54.91290283 5.0562439 54.91772461 8.39770508 C54.92402893 9.64595062 54.93033325 10.89419617 54.93682861 12.18026733 C54.93324815 13.54913473 54.92914602 14.91800084 54.92456055 16.28686523 C54.92590755 17.68690051 54.92784838 19.08693532 54.93035889 20.48696899 C54.93331045 23.4242192 54.92901287 26.36134789 54.91967773 29.29858398 C54.90830408 33.06031705 54.91482902 36.82176408 54.92682266 40.58348656 C54.93405842 43.47628931 54.93174511 46.36902456 54.92656708 49.26182938 C54.92523423 50.64848489 54.92686552 52.03514657 54.93152618 53.42179489 C54.93661694 55.36298248 54.92747931 57.30419157 54.91772461 59.24536133 C54.91613342 60.3496347 54.91454224 61.45390808 54.91290283 62.59164429 C54.66287549 65.40657003 54.11709548 67.06150486 52.65893555 69.45092773 C50.51316918 69.47778712 48.36730909 69.49725861 46.22143555 69.51342773 C45.02647461 69.5250293 43.83151367 69.53663086 42.6003418 69.54858398 C39.65893555 69.45092773 39.65893555 69.45092773 38.65893555 68.45092773 C38.57038394 65.78466743 38.54368881 63.14445659 38.5612793 60.47827148 C38.56269424 59.68062881 38.56410919 58.88298615 38.56556702 58.06117249 C38.57118238 55.50355338 38.58373743 52.94602056 38.59643555 50.38842773 C38.60144857 48.65861129 38.60601182 46.92879347 38.61010742 45.19897461 C38.6211568 40.9495922 38.63843168 36.70027462 38.65893555 32.45092773 C35.06251544 35.84263647 35.06251544 35.84263647 33.65893555 40.45092773 C32.99893555 40.45092773 32.33893555 40.45092773 31.65893555 40.45092773 C31.39081055 41.17280273 31.12268555 41.89467773 30.84643555 42.63842773 C30.45456055 43.56655273 30.06268555 44.49467773 29.65893555 45.45092773 C29.13299805 46.84311523 29.13299805 46.84311523 28.59643555 48.26342773 C26.3776455 50.76851327 25.64361979 51.00400007 22.40893555 51.38842773 C19.00689714 51.23809216 17.93609769 50.73212867 15.5144043 48.27514648 C10.65893555 41.44189006 10.65893555 41.44189006 10.65893555 38.45092773 C9.99893555 38.45092773 9.33893555 38.45092773 8.65893555 38.45092773 C8.65893555 37.46092773 8.65893555 36.47092773 8.65893555 35.45092773 C7.99893555 35.45092773 7.33893555 35.45092773 6.65893555 35.45092773 C6.66679077 36.94257446 6.66679077 36.94257446 6.67480469 38.46435547 C6.69285596 42.14126695 6.70436801 45.81817448 6.71386719 49.49511719 C6.71890712 51.08887388 6.72573904 52.68262592 6.734375 54.27636719 C6.74645553 56.56243026 6.7521671 58.84843241 6.7565918 61.13452148 C6.76175308 61.85119492 6.76691437 62.56786835 6.77223206 63.30625916 C6.77242818 65.02156446 6.72085562 66.7367404 6.65893555 68.45092773 C4.90333613 70.20652715 2.62311113 69.58314693 0.2878418 69.58764648 C-0.41469727 69.5837793 -1.11723633 69.57991211 -1.84106445 69.57592773 C-2.54360352 69.57979492 -3.24614258 69.58366211 -3.9699707 69.58764648 C-9.21445067 69.57754151 -9.21445067 69.57754151 -10.34106445 68.45092773 C-10.44050418 66.37017364 -10.46906041 64.28600925 -10.47045898 62.20288086 C-10.4722113 61.5508519 -10.47396362 60.89882294 -10.47576904 60.22703552 C-10.48018649 58.06205621 -10.47724997 55.89715794 -10.47387695 53.73217773 C-10.47455002 52.23384587 -10.47552007 50.73551411 -10.47677612 49.23718262 C-10.47825295 46.09308841 -10.47609903 42.94902256 -10.47143555 39.80493164 C-10.46573826 35.76606235 -10.46901734 31.72725949 -10.47500801 27.68839264 C-10.47861404 24.59327693 -10.47747485 21.49817709 -10.47488022 18.40306091 C-10.47421106 16.91344698 -10.47503897 15.42383163 -10.47735977 13.93421936 C-10.47988699 11.85576538 -10.47604478 9.77742042 -10.47045898 7.69897461 C-10.46966339 6.51396362 -10.4688678 5.32895264 -10.4680481 4.10803223 C-10.19896621 -1.52244635 -4.4649849 0.02867182 0 0 Z " fill="#A17A3E" transform="translate(379.341064453125,231.549072265625)"/>
<path d="M0 0 C1.46657043 -0.00472824 1.46657043 -0.00472824 2.96276855 -0.009552 C4.0262854 -0.00752777 5.08980225 -0.00550354 6.18554688 -0.00341797 C7.81127625 -0.00485306 7.81127625 -0.00485306 9.46984863 -0.00631714 C11.76652077 -0.00699912 14.06319482 -0.00514358 16.35986328 -0.00097656 C19.88904115 0.00437141 23.41809174 -0.00092097 26.94726562 -0.00732422 C29.17252632 -0.00666344 31.39778694 -0.00538228 33.62304688 -0.00341797 C34.68656372 -0.0054422 35.75008057 -0.00746643 36.8458252 -0.009552 C37.82353882 -0.00639984 38.80125244 -0.00324768 39.80859375 0 C40.67383667 0.00079559 41.53907959 0.00159119 42.43054199 0.00241089 C44.40429688 0.12939453 44.40429688 0.12939453 45.40429688 1.12939453 C45.50322627 3.2942025 45.53400788 5.46233238 45.52929688 7.62939453 C45.53316406 9.40830078 45.53316406 9.40830078 45.53710938 11.22314453 C45.40429688 14.12939453 45.40429688 14.12939453 44.40429688 15.12939453 C41.95599261 15.21783246 39.53609089 15.24468205 37.08789062 15.22705078 C36.35683609 15.22563583 35.62578156 15.22422089 34.87257385 15.22276306 C32.52894055 15.21714861 30.18540148 15.20459375 27.84179688 15.19189453 C26.25651179 15.18688139 24.67122522 15.18231816 23.0859375 15.17822266 C19.19202078 15.1671745 15.29817482 15.14990025 11.40429688 15.12939453 C11.40429688 18.75939453 11.40429688 22.38939453 11.40429688 26.12939453 C21.63429688 26.12939453 31.86429688 26.12939453 42.40429688 26.12939453 C42.40429688 30.74939453 42.40429688 35.36939453 42.40429688 40.12939453 C39.53411246 41.56448674 37.06885965 41.24097959 33.86523438 41.22705078 C32.56328125 41.22382813 31.26132812 41.22060547 29.91992188 41.21728516 C28.53971289 41.20892919 27.15950455 41.20046424 25.77929688 41.19189453 C24.39127762 41.18687954 23.00325665 41.18231663 21.61523438 41.17822266 C18.21154555 41.16640429 14.80794249 41.14992887 11.40429688 41.12939453 C11.40429688 45.08939453 11.40429688 49.04939453 11.40429688 53.12939453 C12.45931396 53.12415771 13.51433105 53.1189209 14.60131836 53.11352539 C18.50186317 53.09547553 22.40240427 53.08396258 26.30297852 53.07446289 C27.99374003 53.06942264 29.68449717 53.06259048 31.37524414 53.05395508 C33.80030394 53.04187596 36.22530631 53.0361633 38.65039062 53.03173828 C39.79102211 53.02399635 39.79102211 53.02399635 40.95469666 53.01609802 C42.77162258 53.01590216 44.58842815 53.06742176 46.40429688 53.12939453 C47.40429688 54.12939453 47.40429688 54.12939453 47.50195312 57.28955078 C47.49035156 58.57732422 47.47875 59.86509766 47.46679688 61.19189453 C47.45777344 62.48224609 47.44875 63.77259766 47.43945312 65.10205078 C47.42785156 66.10107422 47.41625 67.10009766 47.40429688 68.12939453 C44.94986839 69.35660877 43.34712173 69.25631061 40.60327148 69.25878906 C39.60561264 69.26194122 38.6079538 69.26509338 37.58006287 69.26834106 C35.95971886 69.26530472 35.95971886 69.26530472 34.30664062 69.26220703 C33.20203995 69.26316376 32.09743927 69.26412048 30.95936584 69.2651062 C28.62159163 69.26578754 26.28381552 69.26393649 23.94604492 69.25976562 C20.35330999 69.25441169 16.7606998 69.25971483 13.16796875 69.26611328 C10.90169243 69.26545259 8.63541619 69.26417162 6.36914062 69.26220703 C5.28688705 69.26423126 4.20463348 69.26625549 3.08958435 69.26834106 C2.09507767 69.2651889 1.10057098 69.26203674 0.07592773 69.25878906 C-0.80406387 69.25799347 -1.68405548 69.25719788 -2.5907135 69.25637817 C-4.59570312 69.12939453 -4.59570312 69.12939453 -5.59570312 68.12939453 C-5.69514285 66.04864044 -5.72369908 63.96447605 -5.72509766 61.88134766 C-5.72684998 61.2293187 -5.72860229 60.57728973 -5.73040771 59.90550232 C-5.73482516 57.740523 -5.73188864 55.57562474 -5.72851562 53.41064453 C-5.7291887 51.91231267 -5.73015875 50.4139809 -5.73141479 48.91564941 C-5.73289162 45.77155521 -5.7307377 42.62748936 -5.72607422 39.48339844 C-5.72037693 35.44452914 -5.72365602 31.40572629 -5.72964668 27.36685944 C-5.73325271 24.27174373 -5.73211352 21.17664388 -5.72951889 18.08152771 C-5.72884974 16.59191378 -5.72967764 15.10229843 -5.73199844 13.61268616 C-5.73452566 11.53423218 -5.73068345 9.45588722 -5.72509766 7.37744141 C-5.72430206 6.19243042 -5.72350647 5.00741943 -5.72268677 3.78649902 C-5.51204566 -0.62111942 -3.96763876 0.00364825 0 0 Z " fill="#CCB36C" transform="translate(590.595703125,231.87060546875)"/>
<path d="M0 0 C1.43653931 -0.00472824 1.43653931 -0.00472824 2.90209961 -0.009552 C3.94374268 -0.00752777 4.98538574 -0.00550354 6.05859375 -0.00341797 C7.12021729 -0.00437469 8.18184082 -0.00533142 9.27563477 -0.00631714 C11.52522847 -0.00699911 13.77482412 -0.00514366 16.02441406 -0.00097656 C19.48116446 0.00437143 22.93778492 -0.00092101 26.39453125 -0.00732422 C28.57421904 -0.00666344 30.75390675 -0.00538228 32.93359375 -0.00341797 C34.49605835 -0.00645432 34.49605835 -0.00645432 36.09008789 -0.009552 C37.04778076 -0.00639984 38.00547363 -0.00324768 38.9921875 0 C39.83966553 0.00079559 40.68714355 0.00159119 41.56030273 0.00241089 C43.49609375 0.12939453 43.49609375 0.12939453 44.49609375 1.12939453 C44.59502315 3.2942025 44.62580475 5.46233238 44.62109375 7.62939453 C44.62496094 9.40830078 44.62496094 9.40830078 44.62890625 11.22314453 C44.49609375 14.12939453 44.49609375 14.12939453 43.49609375 15.12939453 C41.04778949 15.21783246 38.62788776 15.24468205 36.1796875 15.22705078 C35.44863297 15.22563583 34.71757843 15.22422089 33.96437073 15.22276306 C31.62073743 15.21714861 29.27719836 15.20459375 26.93359375 15.19189453 C25.34830867 15.18688139 23.76302209 15.18231816 22.17773438 15.17822266 C18.28381765 15.1671745 14.3899717 15.14990025 10.49609375 15.12939453 C10.49609375 18.75939453 10.49609375 22.38939453 10.49609375 26.12939453 C11.399646 26.12415771 12.30319824 26.1189209 13.23413086 26.11352539 C16.57560864 26.09651768 19.91704067 26.0839612 23.25854492 26.07446289 C24.70679448 26.06942352 26.15503892 26.062592 27.60327148 26.05395508 C29.68083963 26.04187206 31.75834072 26.03616242 33.8359375 26.03173828 C35.08753662 26.02650146 36.33913574 26.02126465 37.62866211 26.01586914 C40.49609375 26.12939453 40.49609375 26.12939453 41.49609375 27.12939453 C41.59509574 29.1065226 41.62580148 31.08729491 41.62109375 33.06689453 C41.62496094 34.68917969 41.62496094 34.68917969 41.62890625 36.34423828 C41.49609375 39.12939453 41.49609375 39.12939453 40.49609375 41.12939453 C30.92609375 41.12939453 21.35609375 41.12939453 11.49609375 41.12939453 C11.49609375 45.41939453 11.49609375 49.70939453 11.49609375 54.12939453 C23.37609375 54.12939453 35.25609375 54.12939453 47.49609375 54.12939453 C47.49609375 58.74939453 47.49609375 63.36939453 47.49609375 68.12939453 C45.04166527 69.35660877 43.43891861 69.25631061 40.69506836 69.25878906 C39.69740952 69.26194122 38.69975067 69.26509338 37.67185974 69.26834106 C36.05151573 69.26530472 36.05151573 69.26530472 34.3984375 69.26220703 C33.29383682 69.26316376 32.18923615 69.26412048 31.05116272 69.2651062 C28.7133885 69.26578754 26.37561239 69.26393649 24.0378418 69.25976562 C20.44510687 69.25441169 16.85249667 69.25971483 13.25976562 69.26611328 C10.99348931 69.26545259 8.72721306 69.26417162 6.4609375 69.26220703 C5.37868393 69.26423126 4.29643036 69.26625549 3.18138123 69.26834106 C2.18687454 69.2651889 1.19236786 69.26203674 0.16772461 69.25878906 C-0.712267 69.25799347 -1.59225861 69.25719788 -2.49891663 69.25637817 C-4.50390625 69.12939453 -4.50390625 69.12939453 -5.50390625 68.12939453 C-5.60334597 66.04864044 -5.63190221 63.96447605 -5.63330078 61.88134766 C-5.6350531 61.2293187 -5.63680542 60.57728973 -5.63861084 59.90550232 C-5.64302829 57.740523 -5.64009176 55.57562474 -5.63671875 53.41064453 C-5.63739182 51.91231267 -5.63836187 50.4139809 -5.63961792 48.91564941 C-5.64109475 45.77155521 -5.63894083 42.62748936 -5.63427734 39.48339844 C-5.62858005 35.44452914 -5.63185914 31.40572629 -5.63784981 27.36685944 C-5.64145583 24.27174373 -5.64031664 21.17664388 -5.63772202 18.08152771 C-5.63705286 16.59191378 -5.63788077 15.10229843 -5.64020157 13.61268616 C-5.64272878 11.53423218 -5.63888658 9.45588722 -5.63330078 7.37744141 C-5.63250519 6.19243042 -5.63170959 5.00741943 -5.63088989 3.78649902 C-5.42200117 -0.58445106 -3.93849915 0.00369737 0 0 Z " fill="#8F652D" transform="translate(309.50390625,231.87060546875)"/>
<path d="M0 0 C2.88094308 0.08463202 5.14761039 0.21495068 7.66113281 1.69262695 C10.76210317 5.75296001 11.79334047 10.93362181 12.98535156 15.8215332 C14.12745109 20.37672787 15.89711038 24.64528688 17.66894531 28.9855957 C18.01699219 29.8415332 18.36503906 30.6974707 18.72363281 31.5793457 C19.04460937 32.35407227 19.36558594 33.12879883 19.69628906 33.92700195 C20.87071428 37.0794065 21.75017154 40.2786362 22.66113281 43.5168457 C23.46470864 46.13102682 24.30794197 48.73099176 25.16113281 51.3293457 C25.37382812 51.99643555 25.58652344 52.66352539 25.80566406 53.35083008 C26.7770947 56.30386004 27.43209623 58.28780912 29.66113281 60.5168457 C30.29044814 63.19280393 30.44244093 65.76132802 30.66113281 68.5168457 C28.79196487 70.38601365 25.78668707 69.73372578 23.28613281 69.7668457 C21.54203125 69.80551758 21.54203125 69.80551758 19.76269531 69.8449707 C16.66113281 69.5168457 16.66113281 69.5168457 13.66113281 66.5168457 C12.67113281 63.8768457 11.68113281 61.2368457 10.66113281 58.5168457 C-2.20886719 58.0218457 -2.20886719 58.0218457 -15.33886719 57.5168457 C-15.66886719 60.1568457 -15.99886719 62.7968457 -16.33886719 65.5168457 C-17.42089844 68.0012207 -17.42089844 68.0012207 -19.33886719 69.5168457 C-22.05116222 69.81327139 -24.33626451 69.8974576 -27.02636719 69.7668457 C-27.72826172 69.74879883 -28.43015625 69.73075195 -29.15332031 69.7121582 C-30.88242155 69.66510783 -32.61081924 69.59336443 -34.33886719 69.5168457 C-33.968781 63.77412894 -33.15157154 59.62138324 -30.33886719 54.5168457 C-27.82213258 48.59098852 -25.57455258 42.55319625 -23.33886719 36.5168457 C-22.67886719 36.5168457 -22.01886719 36.5168457 -21.33886719 36.5168457 C-21.42136719 35.3412207 -21.50386719 34.1655957 -21.58886719 32.9543457 C-21.59571129 29.03951955 -20.56419159 26.80295943 -18.41308594 23.48950195 C-16.67080678 20.29004387 -16.01148077 16.82850633 -15.12792969 13.3137207 C-12.27308885 3.1945819 -10.46952166 0.08443163 0 0 Z " fill="#AE8D4E" transform="translate(477.3388671875,231.483154296875)"/>
<path d="M0 0 C5.61 0 11.22 0 17 0 C21 13.625 21 13.625 21 17 C21.66 17 22.32 17 23 17 C23.36351562 18.32451172 23.36351562 18.32451172 23.734375 19.67578125 C25.851778 27.25771277 28.17884941 34.64700112 31 42 C33.18112534 38.72831199 34.50931232 35.40643468 35.875 31.75 C36.13966064 31.04560791 36.40432129 30.34121582 36.67700195 29.61547852 C38.87304079 23.63058873 40.54447185 17.59476245 42.04296875 11.40234375 C44.56549521 2.43450479 44.56549521 2.43450479 47 0 C49.69654854 -0.07319621 52.36691458 -0.09242537 55.0625 -0.0625 C55.82111328 -0.05798828 56.57972656 -0.05347656 57.36132812 -0.04882812 C59.24091871 -0.0370068 61.12046899 -0.01907078 63 0 C62.85769192 1.41702513 62.71099254 2.8336096 62.5625 4.25 C62.48128906 5.03890625 62.40007813 5.8278125 62.31640625 6.640625 C62.02365007 8.82364639 61.57935581 10.8773182 61 13 C60.34 13 59.68 13 59 13 C58.77054688 14.19625 58.54109375 15.3925 58.3046875 16.625 C56.82401465 23.27631778 54.44417613 29.60367165 52.125 36 C51.69058594 37.21945312 51.25617187 38.43890625 50.80859375 39.6953125 C48.68456639 45.60176695 46.498786 51.4119051 43.8046875 57.08398438 C42.91692763 59.19780096 42.38482159 61.26658928 41.875 63.5 C41.58625 64.655 41.2975 65.81 41 67 C38.04611864 68.47694068 35.34838118 68.20930797 32.0625 68.25 C30.81597656 68.27578125 29.56945312 68.3015625 28.28515625 68.328125 C25 68 25 68 23.1015625 66.68359375 C21.50795298 64.24797069 21.31725333 61.85527999 21 59 C20.34 59 19.68 59 19 59 C18.66790527 58.03344482 18.66790527 58.03344482 18.32910156 57.04736328 C17.3052937 54.07235449 16.27766795 51.09867749 15.25 48.125 C14.90195312 47.11179687 14.55390625 46.09859375 14.1953125 45.0546875 C12.23865948 39.40213432 10.15969404 33.83147153 7.90625 28.29101562 C6.58954704 24.96236785 5.48028571 21.59249308 4.375 18.1875 C2.7842844 13.24110386 2.7842844 13.24110386 0.8515625 8.42578125 C0 6 0 6 0 0 Z " fill="#CEBC75" transform="translate(644,232)"/>
<path d="M0 0 C14 0 14 0 19 2 C22.62502113 5.62502113 21.41193277 11.35755677 21.42553711 16.26635742 C21.43739973 18.29534916 21.48653025 20.32126327 21.53710938 22.34960938 C21.54419922 23.63287109 21.55128906 24.91613281 21.55859375 26.23828125 C21.57204834 27.41430908 21.58550293 28.59033691 21.59936523 29.80200195 C20.82401375 33.93899953 19.23182378 35.39282693 16 38 C13 39 13 39 0 39 C0 26.13 0 13.26 0 0 Z " fill="#070604" transform="translate(534,247)"/>
<path d="M0 0 C0.66 0.33 1.32 0.66 2 1 C1.02594208 1.69952789 0.05188416 2.39905579 -0.95169067 3.11978149 C-5.01030341 7.22704558 -4.73532502 11.47058232 -4.8099823 17.01187134 C-4.79819317 18.36908453 -4.7858297 19.72629282 -4.77294922 21.08349609 C-4.78112534 22.52280328 -4.79193083 23.96209758 -4.80516052 25.40136719 C-4.83355521 29.29784993 -4.82525886 33.19348607 -4.81029272 37.09001112 C-4.80090392 41.1660233 -4.82537138 45.24183009 -4.84622192 49.31777954 C-4.88054924 57.03125587 -4.88450158 64.74443567 -4.87749684 72.45797312 C-4.87100259 81.24159013 -4.89843753 90.02499911 -4.92869925 98.80855441 C-4.99017516 116.87239716 -5.00911827 134.93606188 -5 153 C-4.34 153 -3.68 153 -3 153 C-3 153.99 -3 154.98 -3 156 C-3.66 156 -4.32 156 -5 156 C-7.07344965 152.58234763 -7.24732022 149.94036535 -7.24050903 145.97625732 C-7.24325836 144.74229218 -7.24600769 143.50832703 -7.24884033 142.23696899 C-7.24176255 140.87249658 -7.23449293 139.50802516 -7.22705078 138.14355469 C-7.22648654 136.70455941 -7.22680347 135.26556355 -7.22793579 133.8265686 C-7.22850981 129.92192088 -7.21674748 126.01739594 -7.20278788 122.11277676 C-7.19028881 118.03151 -7.18911067 113.95024046 -7.18673706 109.86895752 C-7.18051987 102.14129951 -7.16410582 94.41369806 -7.14403808 86.68606496 C-7.12168652 77.88808225 -7.11068752 69.09009684 -7.10064721 60.2920928 C-7.0797398 42.19469646 -7.04455917 24.09735278 -7 6 C-6.34 6 -5.68 6 -5 6 C-4.731875 5.38125 -4.46375 4.7625 -4.1875 4.125 C-3 2 -3 2 0 0 Z " fill="#A03D35" transform="translate(58,178)"/>
<path d="M0 0 C0.33 0 0.66 0 1 0 C1 21.78 1 43.56 1 66 C17.5 66 34 66 51 66 C51 62.04 51 58.08 51 54 C39.45 54 27.9 54 16 54 C16 49.05 16 44.1 16 39 C25.9 39 35.8 39 46 39 C46 39.33 46 39.66 46 40 C36.43 40 26.86 40 17 40 C17 43.96 17 47.92 17 52 C18.05501709 51.99476318 19.11003418 51.98952637 20.19702148 51.98413086 C24.0975663 51.96608099 27.9981074 51.95456805 31.89868164 51.94506836 C33.58944316 51.9400281 35.28020029 51.93319595 36.97094727 51.92456055 C39.39600707 51.91248143 41.82100944 51.90676877 44.24609375 51.90234375 C45.38672523 51.89460182 45.38672523 51.89460182 46.55039978 51.88670349 C48.3673257 51.88650762 50.18413127 51.93802723 52 52 C53 53 53 53 53.09765625 56.16015625 C53.08605469 57.44792969 53.07445312 58.73570312 53.0625 60.0625 C53.05347656 61.35285156 53.04445313 62.64320313 53.03515625 63.97265625 C53.02355469 64.97167969 53.01195312 65.97070312 53 67 C50.54557152 68.22721424 48.94282486 68.12691608 46.19897461 68.12939453 C45.20131577 68.13254669 44.20365692 68.13569885 43.17576599 68.13894653 C41.55542198 68.13591019 41.55542198 68.13591019 39.90234375 68.1328125 C38.79774307 68.13376923 37.6931424 68.13472595 36.55506897 68.13571167 C34.21729475 68.13639301 31.87951864 68.13454196 29.54174805 68.13037109 C25.94901312 68.12501716 22.35640292 68.1303203 18.76367188 68.13671875 C16.49739556 68.13605806 14.23111931 68.13477709 11.96484375 68.1328125 C10.88259018 68.13483673 9.80033661 68.13686096 8.68528748 68.13894653 C7.69078079 68.13579437 6.69627411 68.13264221 5.67163086 68.12939453 C4.79163925 68.12859894 3.91164764 68.12780334 3.00498962 68.12698364 C1 68 1 68 0 67 C-0.09417773 64.91380978 -0.11742878 62.82439523 -0.11352539 60.73608398 C-0.11367142 60.08244873 -0.11381744 59.42881348 -0.1139679 58.75537109 C-0.11326883 56.58557872 -0.10547678 54.41587121 -0.09765625 52.24609375 C-0.09579205 50.74536689 -0.09436816 49.24463943 -0.09336853 47.74391174 C-0.08954352 43.78681774 -0.0797134 39.82976022 -0.06866455 35.87268066 C-0.05845006 31.83765151 -0.05387083 27.80261647 -0.04882812 23.76757812 C-0.03809111 15.84503531 -0.0210149 7.92252219 0 0 Z " fill="#817244" transform="translate(585,233)"/>
<path d="M0 0 C1.39456452 0.00667256 2.78911118 0.01863093 4.18359375 0.03515625 C4.89451172 0.03966797 5.60542969 0.04417969 6.33789062 0.04882812 C8.09899388 0.06064761 9.86005411 0.07858362 11.62109375 0.09765625 C11.62109375 0.42765625 11.62109375 0.75765625 11.62109375 1.09765625 C10.33912109 1.18853516 10.33912109 1.18853516 9.03125 1.28125 C7.37416016 1.40693359 7.37416016 1.40693359 5.68359375 1.53515625 C4.58144531 1.61636719 3.47929687 1.69757813 2.34375 1.78125 C-0.29000528 1.80183709 -0.29000528 1.80183709 -1.37890625 3.09765625 C-1.5025995 5.09117055 -1.55687015 7.08902095 -1.58422852 9.08618164 C-1.60417374 10.36743423 -1.62411896 11.64868683 -1.64466858 12.96876526 C-1.66165422 14.37761309 -1.67853298 15.7864622 -1.6953125 17.1953125 C-1.7158754 18.6287853 -1.73687169 20.06225194 -1.75828552 21.49571228 C-1.81357484 25.27518745 -1.8629537 29.05471795 -1.91113281 32.83428955 C-1.9612979 36.6884048 -2.01700996 40.54243934 -2.07226562 44.39648438 C-2.17993107 51.96347534 -2.28084487 59.53053362 -2.37890625 67.09765625 C1.91109375 67.09765625 6.20109375 67.09765625 10.62109375 67.09765625 C10.62109375 55.21765625 10.62109375 43.33765625 10.62109375 31.09765625 C11.94109375 31.42765625 13.26109375 31.75765625 14.62109375 32.09765625 C15.74609375 34.09765625 15.74609375 34.09765625 16.62109375 36.09765625 C17.28109375 36.42765625 17.94109375 36.75765625 18.62109375 37.09765625 C19.24609375 40.16015625 19.24609375 40.16015625 19.62109375 43.09765625 C18.12109375 41.72265625 18.12109375 41.72265625 16.62109375 40.09765625 C16.62109375 39.43765625 16.62109375 38.77765625 16.62109375 38.09765625 C15.96109375 38.09765625 15.30109375 38.09765625 14.62109375 38.09765625 C14.62109375 37.10765625 14.62109375 36.11765625 14.62109375 35.09765625 C13.96109375 35.09765625 13.30109375 35.09765625 12.62109375 35.09765625 C12.62894897 36.58930298 12.62894897 36.58930298 12.63696289 38.11108398 C12.65501416 41.78799546 12.66652621 45.464903 12.67602539 49.1418457 C12.68106532 50.73560239 12.68789725 52.32935444 12.6965332 53.9230957 C12.70861374 56.20915878 12.7143253 58.49516092 12.71875 60.78125 C12.72391129 61.49792343 12.72907257 62.21459686 12.73439026 62.95298767 C12.73458638 64.66829297 12.68301382 66.38346891 12.62109375 68.09765625 C10.86549433 69.85325567 8.58526933 69.22987544 6.25 69.234375 C5.54746094 69.23050781 4.84492188 69.22664063 4.12109375 69.22265625 C3.41855469 69.22652344 2.71601563 69.23039062 1.9921875 69.234375 C-3.25229247 69.22427003 -3.25229247 69.22427003 -4.37890625 68.09765625 C-4.47834597 66.01690216 -4.50690221 63.93273777 -4.50830078 61.84960938 C-4.5100531 61.19758041 -4.51180542 60.54555145 -4.51361084 59.87376404 C-4.51802829 57.70878472 -4.51509176 55.54388646 -4.51171875 53.37890625 C-4.51239182 51.88057438 -4.51336187 50.38224262 -4.51461792 48.88391113 C-4.51609475 45.73981692 -4.51394083 42.59575108 -4.50927734 39.45166016 C-4.50358005 35.41279086 -4.50685914 31.37398801 -4.51284981 27.33512115 C-4.51645583 24.24000545 -4.51531664 21.1449056 -4.51272202 18.04978943 C-4.51205286 16.5601755 -4.51288077 15.07056015 -4.51520157 13.58094788 C-4.51772878 11.5024939 -4.51388658 9.42414894 -4.50830078 7.34570312 C-4.50750519 6.16069214 -4.50670959 4.97568115 -4.50588989 3.75476074 C-4.31606215 -0.21734252 -4.08570956 0.11808409 0 0 Z " fill="#78582A" transform="translate(373.37890625,231.90234375)"/>
<path d="M0 0 C6.96003447 -0.02526838 13.9200572 -0.04283222 20.88012695 -0.05493164 C23.24992312 -0.05997341 25.61971615 -0.06680665 27.98950195 -0.07543945 C31.38754039 -0.0875119 34.78553785 -0.09322971 38.18359375 -0.09765625 C39.25024765 -0.10281754 40.31690155 -0.10797882 41.4158783 -0.11329651 C42.88729027 -0.11340981 42.88729027 -0.11340981 44.38842773 -0.11352539 C45.25668686 -0.115746 46.12494598 -0.11796661 47.01951599 -0.12025452 C49 0 49 0 50 1 C50.0989294 3.16480797 50.129711 5.33293785 50.125 7.5 C50.12886719 9.27890625 50.12886719 9.27890625 50.1328125 11.09375 C50 14 50 14 49 15 C46.55169574 15.08843793 44.13179401 15.11528752 41.68359375 15.09765625 C40.95253922 15.0962413 40.22148468 15.09482635 39.46827698 15.09336853 C37.12464368 15.08775408 34.78110461 15.07519922 32.4375 15.0625 C30.85221492 15.05748686 29.26692834 15.05292363 27.68164062 15.04882812 C23.7877239 15.03777997 19.89387795 15.02050572 16 15 C16 18.63 16 22.26 16 26 C26.23 26 36.46 26 47 26 C47 30.62 47 35.24 47 40 C46.01 39.505 46.01 39.505 45 39 C45.33 35.04 45.66 31.08 46 27 C44.59923218 27.00785522 44.59923218 27.00785522 43.17016602 27.01586914 C39.71687204 27.0328762 36.26362233 27.04543302 32.81030273 27.05493164 C31.31355082 27.05997121 29.81680384 27.06680287 28.32006836 27.07543945 C26.17300193 27.08752159 24.02600038 27.09323191 21.87890625 27.09765625 C19.93866577 27.10551147 19.93866577 27.10551147 17.95922852 27.11352539 C15 27 15 27 14 26 C13.90126184 24.00200428 13.87028201 22.00042842 13.875 20 C13.87113281 18.3603125 13.87113281 18.3603125 13.8671875 16.6875 C14 14 14 14 15 13 C17.44830426 12.91156207 19.86820599 12.88471248 22.31640625 12.90234375 C23.04746078 12.9037587 23.77851532 12.90517365 24.53172302 12.90663147 C26.87535632 12.91224592 29.21889539 12.92480078 31.5625 12.9375 C33.14778508 12.94251314 34.73307166 12.94707637 36.31835938 12.95117188 C40.2122761 12.96222003 44.10612205 12.97949428 48 13 C48 9.04 48 5.08 48 1 C32.16 1 16.32 1 0 1 C0 0.67 0 0.34 0 0 Z " fill="#93814E" transform="translate(586,232)"/>
<path d="M0 0 C0.66 0 1.32 0 2 0 C2.82101314 2.1843191 3.63142482 4.37262436 4.4375 6.5625 C4.88996094 7.78066406 5.34242188 8.99882812 5.80859375 10.25390625 C7 14 7 14 8 21 C3.05 21 -1.9 21 -7 21 C-6.42973071 13.30136452 -4.30684157 6.46026235 0 0 Z " fill="#201A0E" transform="translate(475,254)"/>
<path d="M0 0 C1.32 0.33 2.64 0.66 4 1 C5.125 3 5.125 3 6 5 C6.66 5.33 7.32 5.66 8 6 C8.625 9.0625 8.625 9.0625 9 12 C7.5 10.625 7.5 10.625 6 9 C6 8.34 6 7.68 6 7 C5.34 7 4.68 7 4 7 C4 6.01 4 5.02 4 4 C3.34 4 2.68 4 2 4 C2.00785522 5.49164673 2.00785522 5.49164673 2.01586914 7.01342773 C2.03392041 10.69033921 2.04543246 14.36724675 2.05493164 18.04418945 C2.05997157 19.63794614 2.0668035 21.23169819 2.07543945 22.82543945 C2.08751999 25.11150253 2.09323155 27.39750467 2.09765625 29.68359375 C2.10281754 30.40026718 2.10797882 31.11694061 2.11329651 31.85533142 C2.11349263 33.57063672 2.06192007 35.28581266 2 37 C1 38 1 38 -2.37890625 38.09765625 C-3.77347077 38.09098369 -5.16801743 38.07902532 -6.5625 38.0625 C-7.62887695 38.05573242 -7.62887695 38.05573242 -8.71679688 38.04882812 C-10.47790013 38.03700864 -12.23896036 38.01907263 -14 38 C-14 37.67 -14 37.34 -14 37 C-9.38 36.67 -4.76 36.34 0 36 C0 24.12 0 12.24 0 0 Z " fill="#886632" transform="translate(384,263)"/>
<path d="M0 0 C10.89 0 21.78 0 33 0 C33 0.33 33 0.66 33 1 C23.1 1.33 13.2 1.66 3 2 C2.67 4.64 2.34 7.28 2 10 C11.24 10 20.48 10 30 10 C30 10.33 30 10.66 30 11 C20.1 11 10.2 11 0 11 C0 7.37 0 3.74 0 0 Z " fill="#261C0E" transform="translate(320,247)"/>
<path d="M0 0 C0.99 0 1.98 0 3 0 C3.433125 0.9590625 3.433125 0.9590625 3.875 1.9375 C4.82823451 4.15206079 4.82823451 4.15206079 7 5 C7.625 8.0625 7.625 8.0625 8 11 C6.5 9.625 6.5 9.625 5 8 C5 7.34 5 6.68 5 6 C4.34 6 3.68 6 3 6 C3 5.01 3 4.02 3 3 C2.34 3 1.68 3 1 3 C1 13.89 1 24.78 1 36 C0.67 36 0.34 36 0 36 C0 24.12 0 12.24 0 0 Z " fill="#594221" transform="translate(385,264)"/>
<path d="M0 0 C4.53484864 -0.09972601 9.0690432 -0.17186655 13.60473633 -0.21972656 C15.14391211 -0.23970121 16.68301338 -0.26689097 18.22192383 -0.30175781 C37.02212938 -0.71669257 37.02212938 -0.71669257 43.72631836 5.63574219 C44.1466333 6.08594727 44.56694824 6.53615234 45 7 C43.603522 6.54363464 42.2078492 6.08480512 40.8125 5.625 C40.03519531 5.36976563 39.25789062 5.11453125 38.45703125 4.8515625 C36 4 36 4 33.80078125 2.97265625 C30.35178854 1.77488891 27.37933116 1.67603287 23.73046875 1.5859375 C23.04946609 1.56657135 22.36846344 1.5472052 21.66682434 1.5272522 C19.50717407 1.46781868 17.34746943 1.421218 15.1875 1.375 C13.71677456 1.33678672 12.24607071 1.29773306 10.77539062 1.2578125 C7.18379211 1.16214817 3.59203087 1.07798425 0 1 C0 0.67 0 0.34 0 0 Z " fill="#372F1C" transform="translate(518,231)"/>
<path d="M0 0 C0.93423645 3.01031744 1.04449911 3.86650268 0 7 C-0.66 7 -1.32 7 -2 7 C-2 8.98 -2 10.96 -2 13 C0.12534659 12.85930804 2.25027529 12.71229079 4.375 12.5625 C6.15003906 12.44068359 6.15003906 12.44068359 7.9609375 12.31640625 C10.91518901 12.18915064 10.91518901 12.18915064 13 11 C12.34 12.32 11.68 13.64 11 15 C6.05 15 1.1 15 -4 15 C-3.56214095 9.22026059 -2.99862039 5.08461719 0 0 Z " fill="#7F673B" transform="translate(447,286)"/>
<path d="M0 0 C1.39456452 0.00667256 2.78911118 0.01863093 4.18359375 0.03515625 C4.89451172 0.03966797 5.60542969 0.04417969 6.33789062 0.04882812 C8.09899388 0.06064761 9.86005411 0.07858362 11.62109375 0.09765625 C11.95109375 0.75765625 12.28109375 1.41765625 12.62109375 2.09765625 C11.7290625 2.05125 10.83703125 2.00484375 9.91796875 1.95703125 C8.7475 1.9209375 7.57703125 1.88484375 6.37109375 1.84765625 C5.2109375 1.80125 4.05078125 1.75484375 2.85546875 1.70703125 C-0.41189444 1.8314506 -0.41189444 1.8314506 -2.66015625 3.78515625 C-4.49013695 6.2473121 -5.5699925 8.47346179 -6.62890625 11.34765625 C-6.9640625 12.2396875 -7.29921875 13.13171875 -7.64453125 14.05078125 C-7.886875 14.72625 -8.12921875 15.40171875 -8.37890625 16.09765625 C-9.47237102 13.32447151 -9.41633466 12.2052249 -8.41796875 9.3359375 C-7.95132812 8.37042969 -7.4846875 7.40492188 -7.00390625 6.41015625 C-6.54242188 5.43691406 -6.0809375 4.46367187 -5.60546875 3.4609375 C-3.86722285 0.11176945 -3.86722285 0.11176945 0 0 Z " fill="#7A6234" transform="translate(471.37890625,231.90234375)"/>
<path d="M0 0 C0 11.22 0 22.44 0 34 C-0.33 34 -0.66 34 -1 34 C-1.33 24.43 -1.66 14.86 -2 5 C-2.99 5.495 -2.99 5.495 -4 6 C-3.625 3.5625 -3.625 3.5625 -3 1 C-1 0 -1 0 0 0 Z " fill="#1C150A" transform="translate(417,266)"/>
<path d="M0 0 C4.95 0 9.9 0 15 0 C15 0.33 15 0.66 15 1 C13.71802734 1.09087891 13.71802734 1.09087891 12.41015625 1.18359375 C10.75306641 1.30927734 10.75306641 1.30927734 9.0625 1.4375 C7.96035156 1.51871094 6.85820312 1.59992188 5.72265625 1.68359375 C3.08890097 1.70418084 3.08890097 1.70418084 2 3 C1.84259395 4.70563778 1.74906608 6.41727244 1.68359375 8.12890625 C1.64169922 9.16337891 1.59980469 10.19785156 1.55664062 11.26367188 C1.51732422 12.35228516 1.47800781 13.44089844 1.4375 14.5625 C1.39431641 15.65498047 1.35113281 16.74746094 1.30664062 17.87304688 C1.20017932 20.58189564 1.09816484 23.29083992 1 26 C0.67 26 0.34 26 0 26 C0 17.42 0 8.84 0 0 Z " fill="#86622E" transform="translate(370,232)"/>
<path d="M0 0 C1.17949219 0.01804688 2.35898437 0.03609375 3.57421875 0.0546875 C4.92966797 0.08949219 4.92966797 0.08949219 6.3125 0.125 C6.3125 0.455 6.3125 0.785 6.3125 1.125 C5.22582031 1.14626953 5.22582031 1.14626953 4.1171875 1.16796875 C-2.57790962 1.49826021 -6.03640343 2.22249281 -10.6875 7.125 C-10.375 4.75 -10.375 4.75 -9.6875 2.125 C-6.05554504 -0.29630331 -4.30400652 -0.08522785 0 0 Z " fill="#7E6031" transform="translate(425.6875,231.875)"/>
<path d="M0 0 C2 3 2 3 4 6 C4.66 4.02 5.32 2.04 6 0 C7.46726798 3.81489674 6.43336419 6.29011622 5 10 C3.68 9.67 2.36 9.34 1 9 C0.67 6.03 0.34 3.06 0 0 Z " fill="#7F7448" transform="translate(672,268)"/>
<path d="M0 0 C0.66 0.33 1.32 0.66 2 1 C1.38511719 1.59748047 1.38511719 1.59748047 0.7578125 2.20703125 C0.21898437 2.73683594 -0.31984375 3.26664063 -0.875 3.8125 C-1.40867187 4.33457031 -1.94234375 4.85664063 -2.4921875 5.39453125 C-4.20776561 7.13259904 -4.20776561 7.13259904 -6 10 C-5.72510809 5.96825194 -5.46508424 4.43105369 -2.4375 1.625 C-1.633125 1.08875 -0.82875 0.5525 0 0 Z " fill="#A94038" transform="translate(58,178)"/>
</svg>
